<svg version="1.0" xmlns="http://www.w3.org/2000/svg" width="400" height="400" viewBox="0 0 300 300"><path d="M163.4 85.5c-4.2 11-9.6 24.9-12 31-4.2 10.8-15.6 40.7-27.4 71.5-3.3 8.5-8.6 22.4-11.9 30.9-3.3 8.5-5.8 15.8-5.6 16.1.4.7 16.2.6 16.8-.1.2-.2 3.1-7.6 6.5-16.4 3.3-8.8 9.2-24.1 13-34 3.8-9.9 11.9-31.1 18-47 6.1-16 14.7-38.4 19.2-49.9 4.4-11.5 7.7-21.2 7.4-21.5-.3-.3-4.1-.6-8.4-.6h-7.9l-7.7 20zm-78.9 19.4c-.9.8-72 33.8-81.2 37.8L0 144v16.6l13.8 6.4c7.5 3.5 17.8 8.2 22.7 10.5 5 2.3 11.5 5.4 14.5 6.8 3 1.4 12.4 5.7 20.8 9.6 8.5 3.9 15.5 7.1 15.6 7.1.5 0 .5-18.6.1-20.1-.3-.9-12.8-6.4-33-14.5-17.8-7.1-32.4-13.2-32.5-13.5 0-.4 6.9-3.4 15.3-6.8 8.3-3.4 16.1-6.6 17.2-7.1 1.1-.6 9-3.9 17.5-7.3l15.5-6.4.1-10.6c.1-10.5-.5-12.3-3.1-9.8zm123.8 9.4l-.1 10.3 19.7 7.7c10.8 4.2 26.1 10.1 34.1 13.2 8 3.1 14.9 6 15.3 6.4.4.5-1.4 1.6-4 2.5-2.6 1-6.1 2.4-7.8 3.1-1.6.7-14.7 5.9-29 11.5-14.3 5.7-26.5 10.7-27.1 11.1-1 .8-1.8 20.9-.8 20.9.3 0 52.7-23.2 69.4-30.7 3.6-1.6 10-4.5 14.3-6.3l7.7-3.4v-8.3c0-7.1-.3-8.5-1.7-9-1.6-.5-65.2-28.5-76.3-33.5-5.7-2.6-13.1-5.8-13.4-5.8-.1 0-.3 4.6-.3 10.3z"/></svg>