<?xml version="1.0" standalone="no"?>
<!DOCTYPE svg PUBLIC "-//W3C//DTD SVG 20010904//EN"
 "http://www.w3.org/TR/2001/REC-SVG-20010904/DTD/svg10.dtd">
<svg version="1.0" xmlns="http://www.w3.org/2000/svg"
 width="300.000000pt" height="300.000000pt" viewBox="0 0 300.000000 300.000000"
 preserveAspectRatio="xMidYMid meet">
<metadata>
Created by potrace 1.11, written by Peter Selinger 2001-2013
</metadata>
<g transform="translate(0.000000,300.000000) scale(0.100000,-0.100000)"
fill="#000000" stroke="none">
<path d="M1634 2145 c-42 -110 -96 -249 -120 -310 -42 -108 -156 -407 -274
-715 -33 -85 -86 -224 -119 -309 -33 -85 -58 -158 -56 -161 4 -7 162 -6 168 1
2 2 31 76 65 164 33 88 92 241 130 340 38 99 119 311 180 470 61 160 147 384
192 499 44 115 77 212 74 215 -3 3 -41 6 -84 6 l-79 0 -77 -200z"/>
<path d="M845 1951 c-9 -8 -720 -338 -812 -378 l-33 -13 0 -83 0 -83 138 -64
c75 -35 178 -82 227 -105 50 -23 115 -54 145 -68 30 -14 124 -57 208 -96 85
-39 155 -71 156 -71 5 0 5 186 1 201 -3 9 -128 64 -330 145 -178 71 -324 132
-325 135 0 4 69 34 153 68 83 34 161 66 172 71 11 6 90 39 175 73 l155 64 1
106 c1 105 -5 123 -31 98z"/>
<path d="M2083 1857 l-1 -103 197 -77 c108 -42 261 -101 341 -132 80 -31 149
-60 153 -64 4 -5 -14 -16 -40 -25 -26 -10 -61 -24 -78 -31 -16 -7 -147 -59
-290 -115 -143 -57 -265 -107 -271 -111 -10 -8 -18 -209 -8 -209 3 0 527 232
694 307 36 16 100 45 143 63 l77 34 0 83 c0 71 -3 85 -17 90 -16 5 -652 285
-763 335 -57 26 -131 58 -134 58 -1 0 -3 -46 -3 -103z"/>
</g>
</svg>
